{"title":"Zookeeper 2001 DVDrip English Klam","uid":6690084,"size":1645844492,"categoryP":"video","categoryS":"movies","magnet":"?xt=urn:btih:68dfade626d288cf174ce94c9e13e7087d80a7e6&amp;dn=Zookeeper+2001+DVDrip+English+Klam&amp;tr=udp%3A%2F%2Ftracker.openbittorrent.com%3A80&amp;tr=udp%3A%2F%2Fopen.demonii.com%3A1337&amp;tr=udp%3A%2F%2Ftracker.coppersurfer.tk%3A6969&amp;tr=udp%3A%2F%2Fexodus.desync.com%3A6969","seeders":0,"leechers":1,"uploader":"Klambake","files":-1,"time":1316544296,"description":"With: Kevin James, de stemmen van Sylvester Stallone en Adam Sandler\n\n'The Zookeeper' vertelt het verhaal over de goedaardige dierenverzorger Griffin Keyes (Kevin James), die ervan overtuigd is dat hij ontslag zal moeten nemen om zijn droomvrouw te vinden. De beesten uit de dierentuin vinden dit maar niks, raken in paniek en besluiten om Griffin te adviseren, in de hoop dat hij het meisje van zijn dromen (Leslie Bibb) verovert en toch voor de dierentuin kan blijven werken.\n\nA group of zoo animals decide to break their code of silence in order to help their lovable zoo keeper find love -- without opting to leave his current job for something more illustrious. \n\n------------------ Dutch Friends ------------------\nYou can find my Friends at: http://www.Film-Test.nl \n------ They got my dutchs subs ---- and more ------\n\nGeneral:\n\nComplete name                    : Zookeeper\\Zookeeper.avi\nFormat                           : AVI\nFormat/Info                      : Audio Video Interleave\nFile size                        : 1.53 GiB\nDuration                         : 1h 41mn\nOverall bit rate                 : 2 154 Kbps\n\nVideo:\n\nFormat                           : MPEG-4 Visual\nFormat profile                   : Simple@L3\nFormat settings, BVOP            : No\nFormat settings, QPel            : No\nFormat settings, GMC             : No warppoints\nFormat settings, Matrix          : Default (H.263)\nCodec ID                         : XVID\nCodec ID/Hint                    : XviD\nDuration                         : 1h 41mn\nBit rate                         : 1 695 Kbps\nWidth                            : 720 pixels\nHeight                           : 304 pixels\nDisplay aspect ratio             : 2.35:1\nFrame rate                       : 23.976 fps\nColor space                      : YUV\nChroma subsampling               : 4:2:0\nBit depth                        : 8 bits\nScan type                        : Progressive\nBits/(Pixel*Frame)               : 0.323\nStream size                      : 1.21 GiB (79%)\nWriting library                  : XviD 1.1.2 (UTC 2006-11-01)\n\nAudio:\n\nFormat                           : AC-3\nFormat/Info                      : Audio Coding 3\nMode extension                   : CM (complete main)\nCodec ID                         : 2000\nDuration                         : 1h 41mn\nBit rate mode                    : Constant\nBit rate                         : 448 Kbps\nChannel(s)                       : 6 channels\nChannel positions                : Front: L C R, Side: L R, LFE\nSampling rate                    : 48.0 KHz\nBit depth                        : 16 bits\nStream size                      : 326 MiB (21%)\nAlignment                        : Aligned on interleaves\nInterleave, duration             : 32 ms (0.77 video frame)\nInterleave, preload duration     : 32 ms\n\n","torrent":{"xt":"urn:btih:68dfade626d288cf174ce94c9e13e7087d80a7e6","amp;dn":"Zookeeper+2001+DVDrip+English+Klam","amp;tr":["udp%3A%2F%2Ftracker.openbittorrent.com%3A80","udp%3A%2F%2Fopen.demonii.com%3A1337","udp%3A%2F%2Ftracker.coppersurfer.tk%3A6969","udp%3A%2F%2Fexodus.desync.com%3A6969"],"infoHash":"68dfade626d288cf174ce94c9e13e7087d80a7e6","infoHashBuffer":{"type":"Buffer","data":[104,223,173,230,38,210,136,207,23,76,233,76,158,19,231,8,125,128,167,230]},"announce":[],"urlList":[]}}